<svg xmlns="http://www.w3.org/2000/svg" viewBox="0 0 1920 1080">
  <title>barninterior</title>
  <g id="Layer_10" data-name="Layer 10">
    <rect x="1.13" width="1920" height="1080" style="fill: #1a1c1c;stroke: #632c2c;stroke-miterlimit: 10;stroke-width: 2px"/>
    <rect x="927.13" y="109.61" width="670.33" height="664.46" style="fill: #fff"/>
    <line x1="1248.88" y1="109.61" x2="1259.36" y2="774.07" style="fill: none;stroke: #632c2c;stroke-miterlimit: 10;stroke-width: 31px"/>
    <line x1="925.84" y1="449.14" x2="1597.46" y2="440.5" style="fill: none;stroke: #632c2c;stroke-miterlimit: 10;stroke-width: 31px"/>
    <line x1="415.74" y1="-5.71" x2="415.74" y2="728.41" style="fill: none;stroke: #fff;stroke-miterlimit: 10"/>
    <circle cx="415.74" cy="756.43" r="28.02" style="fill: #333"/>
    <circle cx="415.74" cy="804.26" r="19.81" style="fill: #333"/>
    <polyline points="439.92 742.26 461.92 724.54 482.76 748.19" style="fill: none;stroke: #333;stroke-miterlimit: 10;stroke-width: 2px"/>
    <polyline points="443.6 763.06 460.42 753.91 476.36 766.12" style="fill: none;stroke: #333;stroke-miterlimit: 10;stroke-width: 2px"/>
    <polyline points="388.49 747.98 366.49 730.26 345.65 753.91" style="fill: none;stroke: #333;stroke-miterlimit: 10;stroke-width: 2px"/>
    <polyline points="389.81 768.78 372.99 759.63 357.05 771.84" style="fill: none;stroke: #333;stroke-miterlimit: 10;stroke-width: 2px"/>
    <g id="Layer_13" data-name="Layer 13">
      <polygon points="927.13 453.13 0 665.15 0 970.19 927.13 774.07 927.13 453.13" style="fill: #fff;opacity: 0.1"/>
      <polygon points="1257.86 108.49 -1.5 505.22 -1.5 772.95 1257.86 424.13 1257.86 108.49" style="fill: #fff;opacity: 0.05"/>
      <g>
        <path d="M946.43,108.49,19.29,360.22v270s924.6-199.34,925.87-209.48S946.43,108.49,946.43,108.49Z" style="fill: #fff;opacity: 0.1"/>
        <polygon points="1286.61 452.01 -30.25 841.19 10.85 1078.87 1286.61 770.72 1286.61 452.01" style="fill: #fff;opacity: 0.05"/>
      </g>
    </g>
  </g>
</svg>
